# Blender 3.6.5
# www.blender.org
mtllib dry_branches_medium_01_1k_b.mtl
o dry_branches_medium_01_b
v 0.057045 0.127113 -0.400662
v 0.055664 0.089816 -0.383582
v 0.034711 0.078788 -0.417454
v 0.028576 0.099716 -0.432810
v 0.061638 0.083863 -0.410556
v 0.081265 0.121251 -0.438841
v 0.093249 0.106503 -0.459137
v 0.101155 0.086124 -0.512912
v 0.092913 0.101898 -0.496528
v 0.066768 0.103655 -0.489858
v 0.071857 0.105681 -0.462980
v 0.020163 0.113781 -0.436131
v 0.028177 0.077739 -0.338377
v 0.013980 0.054764 -0.288949
v 0.012363 0.032654 -0.299332
v -0.026072 0.050812 -0.286255
v -0.011014 0.046350 -0.212777
v -0.030896 0.066493 -0.333645
v -0.014330 0.048417 -0.352984
v -0.027006 0.080226 -0.335245
v 0.001293 0.098964 -0.360302
v 0.018927 0.119650 -0.378560
v 0.004760 0.095421 -0.389661
v 0.051724 0.116074 -0.422001
v 0.033298 0.126665 -0.428808
v 0.070359 0.122244 -0.473903
v 0.042368 0.116934 -0.459110
v 0.054537 0.095340 -0.476963
v 0.053393 0.130698 -0.455557
v 0.022240 0.130932 -0.397898
v 0.037484 0.116624 -0.365092
v 0.040678 0.137653 -0.385731
v -0.004034 0.081069 -0.319572
v 0.017212 0.051979 -0.340803
v -0.011108 0.001238 -0.198293
v -0.017803 0.002445 -0.224774
v -0.030627 0.027195 -0.212834
v 0.021211 0.017348 -0.147490
v -0.016525 0.003110 -0.148503
v -0.015448 0.010715 -0.069008
v -0.018360 0.025168 -0.049018
v -0.010082 0.046266 -0.007034
v 0.018218 0.043524 -0.002628
v -0.036677 0.013699 -0.139457
v -0.039880 0.025888 -0.173846
v -0.021554 0.032447 -0.141182
v 0.016411 0.036644 -0.126137
v 0.016901 0.016165 -0.079130
v 0.009363 0.046174 -0.096176
v -0.012858 0.032730 -0.094434
v 0.017320 0.036597 -0.073647
v 0.017185 0.023221 -0.007721
v 0.001096 0.007701 0.031987
v -0.002057 0.012053 -0.039074
v -0.018789 0.028884 0.036509
v 0.007525 0.006992 0.068793
v -0.016853 0.010776 0.065899
v 0.000351 0.035821 0.092865
v -0.014062 0.061135 0.131525
v 0.008828 0.077401 0.145248
v 0.012090 0.055130 0.028991
v 0.012423 0.062925 0.077542
v 0.018389 0.042220 0.089901
v -0.007744 0.055744 0.050696
v -0.012546 0.049193 0.065921
v 0.005842 0.075399 0.115288
v 0.013484 0.054375 0.217886
v -0.001807 0.050334 0.168628
v -0.016423 0.056557 0.209294
v 0.010186 0.071657 0.224295
v 0.020781 0.065609 0.253884
v 0.038895 0.050494 0.336547
v 0.037358 0.024844 0.349336
v 0.009785 0.040370 0.337038
v 0.040646 0.029960 0.376527
v 0.021457 0.023530 0.390779
v 0.002076 0.056318 0.278828
v -0.026036 0.066787 0.228624
v -0.008657 0.086337 0.220042
v -0.011683 0.077759 0.253568
v -0.002172 0.062189 0.309106
v 0.023161 0.079131 0.285678
v 0.011829 0.083493 0.253968
v 0.004882 0.092034 0.178282
v -0.012498 0.083943 0.173548
v 0.026815 0.074959 0.163046
v 0.018262 0.059194 0.168599
v 0.017577 0.059579 0.344100
v 0.006180 0.004661 0.381178
v 0.050739 0.017325 0.432796
v 0.064132 0.011723 0.476352
v 0.075582 0.022235 0.509488
v 0.093587 0.026560 0.493242
v 0.076271 0.024285 0.436552
v 0.061890 0.004130 0.395533
v -0.028966 0.035037 -0.256422
v 0.013623 0.029475 -0.215242
v -0.007107 0.048953 -0.054285
v 0.060530 0.121022 -0.389571
v 0.071470 0.110380 -0.401945
vn -0.2097 -0.8661 -0.4538
vn -0.9077 0.1252 -0.4006
vn -0.8580 -0.2687 -0.4378
vn -0.1469 -0.9574 -0.2484
vn 0.5670 -0.8221 0.0515
vn 0.8533 0.4973 0.1569
vn 0.6721 -0.7262 0.1446
vn 0.2571 0.9543 -0.1520
vn 0.3873 0.9219 -0.0125
vn 0.1098 0.9599 -0.2580
vn -0.3320 0.5820 -0.7423
vn 0.7619 0.6189 -0.1909
vn 0.1498 -0.9880 -0.0375
vn 0.1953 0.9467 -0.2562
vn -0.7492 0.2718 -0.6040
vn -0.9157 0.2113 -0.3419
vn -0.6487 0.7219 -0.2410
vn -0.8880 0.3416 -0.3078
vn 0.6943 -0.7077 -0.1306
vn 0.8365 -0.0358 0.5468
vn 0.8553 -0.2352 0.4617
vn 0.7712 0.2535 0.5839
vn 0.1206 0.6181 0.7768
vn -0.2906 0.8615 0.4163
vn -0.0079 0.9190 0.3941
vn 0.8449 0.4719 0.2520
vn 0.6047 -0.7726 -0.1935
vn -0.4725 -0.7617 -0.4433
vn -0.2822 -0.9292 -0.2385
vn -0.9877 0.1558 -0.0112
vn -0.9848 0.1609 0.0658
vn -0.1024 0.9797 0.1726
vn -0.9444 -0.2895 -0.1558
vn -0.6404 0.7011 0.3136
vn -0.4427 0.8617 -0.2478
vn 0.2386 0.9684 -0.0725
vn 0.0818 0.9180 0.3880
vn 0.9958 -0.0745 -0.0528
vn 0.1873 -0.9792 -0.0784
vn -0.9774 0.1810 -0.1091
vn -0.9973 -0.0693 -0.0228
vn -0.8164 -0.2676 0.5118
vn -0.2686 -0.9586 0.0946
vn 0.7498 -0.6604 -0.0416
vn 0.7050 -0.7081 0.0392
vn -0.5407 -0.8385 0.0679
vn -0.1991 -0.9795 0.0307
vn -0.6079 0.7900 -0.0801
vn -0.2368 0.9699 -0.0561
vn -1.0000 -0.0084 0.0040
vn 0.8391 0.5415 -0.0517
vn 0.8305 0.5567 -0.0172
vn -0.0081 0.9852 -0.1714
vn -0.8683 0.4922 -0.0617
vn -0.4648 0.8537 0.2349
vn 0.4964 0.8681 -0.0048
vn 0.8731 -0.4875 0.0066
vn 0.4545 0.8769 -0.1563
vn 0.9965 -0.0514 0.0655
vn -0.1743 -0.9786 -0.1096
vn -0.9774 -0.2087 -0.0326
vn -0.5877 0.8051 -0.0807
vn -0.8314 -0.4802 0.2794
vn 0.6595 -0.7108 0.2446
vn -0.3409 -0.8507 0.4002
vn -0.9241 0.3805 0.0358
vn 0.8903 -0.4376 0.1258
vn -0.1764 -0.9810 0.0803
vn -0.9943 -0.0781 -0.0724
vn -0.7761 -0.6306 0.0015
vn -0.7975 0.5787 -0.1703
vn 0.7248 0.6383 -0.2593
vn -0.0943 0.9630 -0.2525
vn 0.3763 0.9163 -0.1368
vn 0.9174 0.3928 -0.0644
vn 0.6512 -0.7462 0.1385
vn 0.6535 0.7417 0.1509
vn -0.0156 0.9972 0.0726
vn 0.7805 0.5035 -0.3705
vn 0.1452 0.9859 0.0835
vn 0.8793 -0.3602 -0.3117
vn 0.3578 -0.7600 -0.5425
vn -0.4081 -0.9121 -0.0401
vn 0.9392 0.3434 0.0075
vn 0.3966 0.9051 0.1534
vn -0.1704 0.8558 0.4885
vn -0.4285 -0.9013 -0.0635
vn 0.3841 -0.9115 -0.1468
vn -0.7739 0.3591 0.5216
vn -0.0102 -0.9874 0.1581
vn 0.7447 -0.6672 0.0165
vn -0.5845 0.6649 0.4650
vn -0.9775 -0.2013 -0.0638
vn -0.9245 0.2870 0.2510
vn -0.7448 0.5888 0.3140
vn -0.9096 -0.4003 0.1111
vn 0.2418 0.9282 0.2827
vn 0.3425 0.9291 -0.1393
vn -0.4143 0.8966 0.1566
vn 0.9377 -0.0231 0.3467
vt 0.562896 0.422435
vt 0.613156 0.403246
vt 0.575112 0.450849
vt 0.541134 0.490707
vt 0.744298 0.440968
vt 0.768309 0.414382
vt 0.809327 0.491350
vt 0.734696 0.494367
vt 0.763270 0.507547
vt 0.796089 0.950386
vt 0.840562 0.931675
vt 0.870723 0.952260
vt 0.812135 0.972395
vt 0.541545 0.257487
vt 0.545875 0.230323
vt 0.569430 0.234942
vt 0.813466 0.533767
vt 0.820948 0.498795
vt 0.588507 0.238956
vt 0.564945 0.301299
vt 0.568728 0.277808
vt 0.569471 0.488848
vt 0.587473 0.460888
vt 0.597210 0.470249
vt 0.629578 0.325680
vt 0.724800 0.333928
vt 0.694459 0.355534
vt 0.716726 0.419340
vt 0.695201 0.449219
vt 0.672998 0.417720
vt 0.635312 0.375009
vt 0.653325 0.320309
vt 0.690108 0.274545
vt 0.720579 0.276091
vt 0.762323 0.331490
vt 0.742323 0.188944
vt 0.622837 0.225877
vt 0.627572 0.267293
vt 0.599110 0.246833
vt 0.631409 0.263066
vt 0.658821 0.180302
vt 0.617085 0.316326
vt 0.589027 0.329898
vt 0.641221 0.423412
vt 0.632805 0.448550
vt 0.621516 0.481445
vt 0.585006 0.505530
vt 0.801840 0.922840
vt 0.787919 0.935739
vt 0.576920 0.525518
vt 0.530886 0.514862
vt 0.662812 0.446874
vt 0.875344 0.921483
vt 0.899404 0.939544
vt 0.578600 0.362344
vt 0.696719 0.178554
vt 0.744029 0.151352
vt 0.602312 0.177195
vt 0.622996 0.172540
vt 0.624978 0.141288
vt 0.595507 0.142640
vt 0.620804 0.103968
vt 0.607746 0.101701
vt 0.741230 0.098412
vt 0.705240 0.098752
vt 0.703102 0.035445
vt 0.732702 0.028083
vt 0.830744 0.290899
vt 0.859510 0.290761
vt 0.837979 0.318286
vt 0.911516 0.358977
vt 0.908861 0.307511
vt 0.933279 0.303946
vt 0.881485 0.358911
vt 0.879854 0.291200
vt 0.683474 0.021290
vt 0.673238 0.046964
vt 0.648511 0.009814
vt 0.641734 0.038114
vt 0.606680 0.027366
vt 0.637890 0.047566
vt 0.638161 0.101551
vt 0.629005 0.136522
vt 0.686000 0.078303
vt 0.862061 0.352933
vt 0.893062 0.396004
vt 0.863999 0.454946
vt 0.835321 0.389006
vt 0.813455 0.393383
vt 0.827790 0.312262
vt 0.940679 0.397199
vt 0.911255 0.419235
vt 0.335311 0.904219
vt 0.324231 0.873480
vt 0.342804 0.874284
vt 0.838377 0.418654
vt 0.358720 0.900640
vt 0.350910 0.917355
vt 0.821064 0.424502
vt 0.836589 0.456884
vt 0.813849 0.445339
vt 0.862935 0.542940
vt 0.839092 0.541780
vt 0.829299 0.490008
vt 0.921210 0.506810
vt 0.935781 0.583104
vt 0.905692 0.554569
vt 0.886771 0.523370
vt 0.893684 0.491446
vt 0.888129 0.448101
vt 0.923455 0.437865
vt 0.950511 0.419277
vt 0.879381 0.536103
vt 0.852767 0.603096
vt 0.825324 0.593724
vt 0.848723 0.597794
vt 0.886132 0.562475
vt 0.902758 0.599939
vt 0.872204 0.607637
vt 0.885722 0.646033
vt 0.863355 0.650898
vt 0.854108 0.792354
vt 0.827348 0.674744
vt 0.872569 0.756716
vt 0.883097 0.687748
vt 0.909833 0.754979
vt 0.794317 0.824753
vt 0.846552 0.854580
vt 0.801093 0.868575
vt 0.871714 0.070303
vt 0.839146 0.153484
vt 0.832554 0.044548
vt 0.953672 0.823969
vt 0.917556 0.837259
vt 0.935950 0.751530
vt 0.923566 0.701008
vt 0.933858 0.671576
vt 0.915633 0.634396
vt 0.821456 0.706721
vt 0.812587 0.756477
vt 0.922965 0.607005
vt 0.798466 0.890164
vt 0.824674 0.883525
vt 0.826042 0.897080
vt 0.892041 0.549442
vt 0.824204 0.623813
vt 0.887530 0.823222
vt 0.930629 0.866662
vt 0.874812 0.148292
vt 0.787700 0.116751
vt 0.805119 0.157601
vt 0.786906 0.148598
vt 0.822954 0.106672
vt 0.810599 0.024260
vt 0.866848 0.019033
vt 0.818854 0.154984
vt 0.790671 0.061802
vt 0.870727 0.610578
vt 0.943707 0.540919
vt 0.626720 0.019021
vt 0.631609 0.019136
vt 0.576037 0.209533
vt 0.717888 0.458357
vt 0.695366 0.475944
vt 0.983571 0.318149
vt 0.956720 0.329959
vt 0.951508 0.315808
vt 0.006102 0.483623
vt 0.022210 0.477228
vt 0.018506 0.488936
s 1
usemtl dry_branches_medium_01
f 3/1/1 23/2/2 4/3/3
f 28/4/4 3/1/1 4/3/3
f 5/5/5 3/6/1 28/7/4
f 6/8/6 5/5/5 7/9/7
f 11/10/8 24/11/9 1/12/10
f 6/13/6 11/10/8 1/12/10
f 10/14/11 26/15/12 11/16/8
f 8/17/13 28/7/4 10/18/11
f 7/19/7 8/20/13 9/21/14
f 7/19/7 9/21/14 11/16/8
f 9/21/14 8/20/13 10/14/11
f 11/16/8 9/21/14 10/14/11
f 5/5/5 28/7/4 7/9/7
f 8/17/13 7/9/7 28/7/4
f 4/3/3 27/22/15 28/4/4
f 27/22/15 4/3/3 12/23/16
f 25/24/17 27/22/15 12/23/16
f 25/24/17 12/23/16 4/3/3
f 4/3/3 23/2/2 25/24/17
f 23/2/2 3/1/1 20/25/18
f 34/26/19 3/6/1 13/27/20
f 5/5/5 13/27/20 3/6/1
f 5/5/5 2/28/21 13/27/20
f 2/28/21 99/29/22 13/27/20
f 13/27/20 99/29/22 31/30/23
f 13/27/20 31/30/23 21/31/24
f 13/27/20 21/31/24 33/32/25
f 13/27/20 33/32/25 14/33/26
f 14/33/26 34/26/19 13/27/20
f 34/26/19 14/33/26 15/34/27
f 19/35/28 15/34/27 36/36/29
f 96/37/30 16/38/31 36/39/29
f 16/40/31 96/37/30 17/41/32
f 16/40/31 17/41/32 33/32/25
f 14/33/26 33/32/25 17/41/32
f 20/25/18 16/40/31 33/32/25
f 34/26/19 15/34/27 19/35/28
f 18/42/33 20/25/18 19/43/28
f 3/1/1 19/43/28 20/25/18
f 21/31/24 23/2/2 20/25/18
f 22/44/34 21/31/24 31/30/23
f 22/44/34 30/45/35 23/2/2
f 23/2/2 30/45/35 25/24/17
f 24/46/9 25/24/17 30/45/35
f 25/24/17 24/46/9 29/47/36
f 24/11/9 11/10/8 29/48/36
f 26/49/12 29/48/36 11/10/8
f 26/50/12 10/51/11 29/47/36
f 10/51/11 27/22/15 29/47/36
f 28/4/4 27/22/15 10/51/11
f 25/24/17 29/47/36 27/22/15
f 32/52/37 30/45/35 22/44/34
f 31/30/23 32/52/37 22/44/34
f 99/29/22 32/52/37 31/30/23
f 1/12/10 24/11/9 30/53/35
f 32/54/37 1/12/10 30/53/35
f 23/2/2 21/31/24 22/44/34
f 33/32/25 21/31/24 20/25/18
f 18/42/33 16/40/31 20/25/18
f 34/55/19 19/43/28 3/1/1
f 18/42/33 19/43/28 16/38/31
f 97/56/38 15/34/27 14/33/26
f 36/36/29 15/34/27 97/56/38
f 35/57/39 36/36/29 97/56/38
f 96/37/30 36/58/29 37/59/40
f 45/60/41 37/59/40 36/58/29
f 36/58/29 35/61/39 45/60/41
f 44/62/42 45/60/41 39/63/43
f 39/64/43 38/65/44 48/66/45
f 48/66/45 40/67/46 39/64/43
f 40/68/46 48/69/45 54/70/47
f 42/71/48 98/72/49 41/73/50
f 98/72/49 43/74/51 51/75/52
f 51/76/52 49/77/53 98/78/49
f 98/78/49 49/77/53 50/79/54
f 40/80/46 50/81/54 39/63/43
f 39/63/43 46/82/55 44/62/42
f 44/62/42 46/82/55 45/83/41
f 45/60/41 46/82/55 17/41/32
f 47/84/56 17/41/32 46/82/55
f 38/65/44 39/64/43 35/57/39
f 38/65/44 47/84/56 48/66/45
f 47/84/56 51/76/52 48/66/45
f 49/77/53 51/76/52 47/84/56
f 49/77/53 47/84/56 50/79/54
f 46/82/55 39/63/43 50/81/54
f 47/84/56 46/82/55 50/79/54
f 51/75/52 43/74/51 48/69/45
f 52/85/57 48/69/45 43/74/51
f 98/72/49 42/71/48 43/74/51
f 61/86/58 43/74/51 42/71/48
f 63/87/59 52/85/57 43/74/51
f 53/88/60 54/70/47 52/85/57
f 54/70/47 53/88/60 55/89/61
f 55/89/61 41/90/50 54/70/47
f 55/91/61 42/71/48 41/73/50
f 54/70/47 48/69/45 52/85/57
f 40/68/46 54/70/47 41/90/50
f 42/71/48 55/91/61 64/92/62
f 57/93/63 55/94/61 53/95/60
f 53/88/60 52/85/57 56/96/64
f 57/93/63 53/95/60 56/97/64
f 57/93/63 56/97/64 58/98/65
f 57/99/63 58/100/65 65/101/66
f 58/100/65 63/87/59 87/102/67
f 68/103/68 58/100/65 87/102/67
f 58/100/65 68/103/68 59/104/69
f 59/105/69 69/106/70 85/107/71
f 60/108/72 66/109/73 85/107/71
f 63/87/59 62/110/74 66/109/73
f 63/87/59 61/86/58 62/110/74
f 56/96/64 63/87/59 58/100/65
f 52/85/57 63/87/59 56/96/64
f 43/74/51 61/86/58 63/87/59
f 65/111/66 59/105/69 66/109/73
f 55/91/61 57/112/63 65/111/66
f 55/91/61 65/111/66 64/92/62
f 65/101/66 58/100/65 59/104/69
f 59/105/69 85/107/71 66/109/73
f 65/111/66 62/110/74 64/92/62
f 62/110/74 61/86/58 64/92/62
f 62/110/74 65/111/66 66/109/73
f 42/71/48 64/92/62 61/86/58
f 63/87/59 66/109/73 60/108/72
f 60/108/72 87/102/67 63/87/59
f 60/108/72 86/113/75 87/102/67
f 68/103/68 87/102/67 67/114/76
f 69/115/70 68/103/68 67/114/76
f 67/116/76 87/102/67 84/117/77
f 79/118/78 70/119/79 67/116/76
f 84/117/77 79/118/78 67/116/76
f 70/119/79 83/120/80 71/121/81
f 71/121/81 73/122/82 77/123/83
f 73/122/82 71/121/81 72/124/84
f 71/121/81 82/125/85 72/124/84
f 82/125/85 88/126/86 72/124/84
f 89/127/87 95/128/88 90/129/89
f 73/122/82 95/128/88 89/127/87
f 91/130/90 95/131/88 93/132/91
f 89/133/87 76/134/92 74/135/93
f 88/126/86 74/135/93 76/134/92
f 88/126/86 81/136/94 74/135/93
f 81/136/94 88/126/86 82/125/85
f 77/137/83 81/136/94 80/138/95
f 77/123/83 73/122/82 81/139/94
f 81/139/94 73/122/82 74/140/93
f 71/121/81 77/123/83 67/114/76
f 78/141/96 77/137/83 80/138/95
f 78/142/96 85/143/71 69/144/70
f 85/107/71 78/141/96 79/118/78
f 78/141/96 80/138/95 79/118/78
f 83/120/80 70/119/79 79/118/78
f 80/138/95 83/120/80 79/118/78
f 80/138/95 81/136/94 83/120/80
f 81/136/94 82/125/85 83/120/80
f 82/125/85 71/121/81 83/120/80
f 84/117/77 85/107/71 79/118/78
f 60/108/72 85/107/71 84/145/77
f 84/117/77 86/113/75 60/108/72
f 86/113/75 84/117/77 87/102/67
f 78/146/96 69/115/70 67/114/76
f 77/123/83 78/146/96 67/114/76
f 75/147/97 72/124/84 88/126/86
f 76/134/92 75/147/97 88/126/86
f 72/124/84 75/147/97 73/122/82
f 89/133/87 90/148/89 76/134/92
f 91/130/90 90/149/89 95/131/88
f 90/150/89 75/151/97 76/152/92
f 90/150/89 94/153/98 75/151/97
f 94/153/98 90/150/89 92/154/99
f 93/132/91 94/153/98 92/154/99
f 91/130/90 93/132/91 92/155/99
f 93/132/91 95/131/88 94/153/98
f 73/156/82 94/153/98 95/131/88
f 94/153/98 73/156/82 75/151/97
f 91/157/90 92/154/99 90/150/89
f 74/140/93 73/122/82 89/127/87
f 67/114/76 70/158/79 71/121/81
f 68/159/68 69/106/70 59/105/69
f 97/56/38 47/84/56 38/65/44
f 35/57/39 97/56/38 38/65/44
f 47/84/56 97/56/38 17/41/32
f 45/60/41 17/41/32 37/59/40
f 17/41/32 96/37/30 37/59/40
f 14/33/26 17/41/32 97/56/38
f 40/80/46 41/160/50 50/81/54
f 41/161/50 98/78/49 50/79/54
f 39/63/43 45/60/41 35/61/39
f 36/39/29 16/38/31 19/43/28
f 6/162/6 7/19/7 11/16/8
f 100/163/100 1/164/10 99/29/22
f 6/165/6 1/166/10 100/167/100
f 5/5/5 6/8/6 100/163/100
f 100/163/100 99/29/22 2/28/21
f 5/5/5 100/163/100 2/28/21
f 32/168/37 99/169/22 1/170/10
