# Blender 3.6.5
# www.blender.org
mtllib dry_branches_medium_01_1k_c.mtl
o dry_branches_medium_01_c
v 0.430282 0.095790 -0.429090
v 0.437055 0.096447 -0.417878
v 0.402883 0.086674 -0.264920
v 0.418591 0.065157 -0.443983
v 0.447030 0.062230 -0.406597
v 0.443847 0.076194 -0.332455
v 0.399130 0.043168 -0.332762
v 0.404569 0.074426 -0.347620
v 0.435494 0.035960 -0.332370
v 0.414754 0.066719 -0.271079
v 0.393154 0.044072 -0.311487
v 0.406322 0.040388 -0.263711
v 0.462815 0.053636 -0.227182
v 0.447868 0.066120 -0.219086
v 0.401790 0.061051 -0.251584
v 0.449375 0.025595 -0.240737
v 0.471000 0.059179 -0.193587
v 0.441985 0.070167 -0.158833
v 0.491350 0.052751 -0.205424
v 0.489631 0.023182 -0.188519
v 0.438803 0.007110 -0.203584
v 0.498569 0.033328 -0.135277
v 0.408591 0.029640 -0.168055
v 0.442330 0.062845 -0.101392
v 0.502988 0.049278 -0.070639
v 0.503639 0.077832 -0.029365
v 0.429388 0.023588 -0.071198
v 0.498605 0.065802 0.013335
v 0.496922 0.009625 -0.040147
v 0.507039 0.036341 -0.017019
v 0.486501 0.072816 0.068423
v 0.451631 0.067910 0.011798
v 0.434285 0.025431 -0.005607
v 0.421517 0.063140 0.144078
v 0.432811 0.013606 0.034455
v 0.509077 0.034507 0.047084
v 0.461859 0.080491 0.285660
v 0.438390 0.092874 0.263315
v 0.493277 0.007420 0.054980
v 0.455209 0.005975 0.114873
v 0.498212 0.014039 0.113417
v 0.476933 0.032704 0.280668
v 0.407516 0.073918 0.290628
v 0.482036 0.014341 0.195464
v 0.443788 0.075451 0.307746
v 0.443172 0.004493 0.205686
v 0.482422 0.059794 -0.131096
v 0.396417 0.055207 0.300107
v 0.469082 0.054942 0.314558
v 0.402007 0.026559 0.237962
v 0.404158 0.018029 0.285170
v 0.428338 -0.000310 0.246398
v 0.433514 0.134541 -0.388576
v 0.487644 0.048806 -0.173744
vn -0.6150 -0.6348 -0.4678
vn -0.4935 0.7101 -0.5022
vn 0.9398 -0.2769 -0.2003
vn 0.4267 0.8962 0.1218
vn -0.7095 0.7032 0.0453
vn -0.7627 -0.2727 -0.5865
vn -0.9623 -0.2640 0.0654
vn 0.1389 0.9223 0.3606
vn 0.3874 -0.9057 -0.1722
vn -0.9418 -0.3210 -0.1001
vn -0.2371 0.9684 0.0769
vn -0.2542 -0.9661 -0.0457
vn -0.9727 -0.2307 0.0238
vn 0.9055 0.3088 -0.2911
vn 0.8030 0.5957 0.0182
vn -0.2633 0.9567 0.1237
vn 0.5187 -0.7817 -0.3462
vn 0.4995 0.8648 0.0520
vn -0.9794 0.1863 0.0780
vn 0.8608 0.1348 -0.4908
vn 0.7465 -0.6261 -0.2252
vn -0.1398 0.9897 -0.0295
vn 0.6328 -0.7719 -0.0607
vn 0.8775 0.4221 -0.2277
vn -0.6091 0.7926 -0.0279
vn 0.4249 0.9017 -0.0803
vn -0.0524 -0.9986 -0.0049
vn 0.8615 0.4741 -0.1817
vn 0.2887 -0.9527 -0.0948
vn -0.3641 -0.9299 0.0531
vn 0.3270 0.9394 -0.1024
vn -0.1477 0.9890 0.0005
vn 0.6632 0.7429 0.0906
vn -0.8279 -0.5561 -0.0724
vn -0.8009 0.5860 -0.1229
vn 0.9857 0.1374 0.0974
vn 0.9996 -0.0118 -0.0253
vn 0.1537 -0.9866 -0.0539
vn 0.2902 0.9566 -0.0282
vn 0.8378 0.5336 0.1152
vn -0.7443 -0.6553 -0.1289
vn 0.5477 -0.8324 0.0848
vn -0.1215 -0.9926 -0.0059
vn 0.8872 -0.3652 0.2820
vn 0.5975 -0.7912 0.1305
vn -0.8099 0.5858 -0.0308
vn -0.9229 -0.3635 -0.1270
vn -0.1765 0.9826 -0.0582
vn -0.1387 0.3752 0.9165
vn 0.0226 -0.9996 0.0167
vn -0.0116 -0.9867 0.1624
vn -0.8584 0.0015 0.5129
vn -0.2394 -0.7034 0.6693
vn 0.3284 -0.3104 0.8921
vt 0.913865 0.900354
vt 0.874892 0.899620
vt 0.888486 0.869664
vt 0.668486 0.965242
vt 0.643472 0.969349
vt 0.637120 0.897593
vt 0.539055 0.204208
vt 0.559073 0.028191
vt 0.573947 0.058706
vt 0.706399 0.956968
vt 0.725144 0.868136
vt 0.740022 0.978365
vt 0.759115 0.902148
vt 0.528148 0.078373
vt 0.533862 0.032823
vt 0.766363 0.834219
vt 0.220386 0.709597
vt 0.223813 0.725951
vt 0.193340 0.722295
vt 0.691260 0.733766
vt 0.683988 0.870299
vt 0.657838 0.731944
vt 0.723503 0.751195
vt 0.776348 0.795423
vt 0.582890 0.008384
vt 0.674528 0.692500
vt 0.617794 0.765724
vt 0.599555 0.765519
vt 0.582314 0.682146
vt 0.707978 0.699354
vt 0.712212 0.683750
vt 0.632637 0.663186
vt 0.704355 0.624869
vt 0.689420 0.667897
vt 0.616183 0.597303
vt 0.670680 0.617564
vt 0.759109 0.705454
vt 0.690042 0.543112
vt 0.734371 0.552535
vt 0.808972 0.581056
vt 0.405518 0.067305
vt 0.436765 0.113646
vt 0.382840 0.103108
vt 0.458726 0.067843
vt 0.480456 0.043658
vt 0.498034 0.091439
vt 0.447351 0.276457
vt 0.347420 0.145973
vt 0.351059 0.075729
vt 0.316707 0.060963
vt 0.306297 0.150689
vt 0.249927 0.083751
vt 0.393408 0.172994
vt 0.370667 0.433567
vt 0.508278 0.141456
vt 0.318122 0.217053
vt 0.265453 0.217389
vt 0.247106 0.130910
vt 0.304894 0.406890
vt 0.297816 0.310866
vt 0.452193 0.447613
vt 0.515124 0.386170
vt 0.408605 0.412345
vt 0.387108 0.454176
vt 0.248280 0.328279
vt 0.233607 0.374683
vt 0.827431 0.176300
vt 0.796556 0.243215
vt 0.803733 0.181020
vt 0.503952 0.439028
vt 0.479333 0.452547
vt 0.821065 0.263861
vt 0.873893 0.205384
vt 0.869463 0.260224
vt 0.864056 0.879235
vt 0.624247 0.986294
vt 0.605966 0.873627
vt 0.633619 0.792484
vt 0.196204 0.695786
vt 0.971240 0.726754
vt 0.961443 0.702760
vt 0.974754 0.695314
vt 0.591488 0.011127
vt 0.790110 0.373185
vt 0.778380 0.379435
vt 0.777235 0.367274
vt 0.775138 0.386277
vt 0.807114 0.673368
vt 0.647514 0.514812
vt 0.560410 0.579331
vt 0.350735 0.044660
vt 0.385395 0.074168
vt 0.245960 0.019353
vt 0.210637 0.303021
vt 0.333975 0.462692
vt 0.771047 0.200873
vt 0.207386 0.365390
vt 0.546288 0.410625
vt 0.528727 0.424759
vt 0.896774 0.216783
s 1
usemtl dry_branches_medium_01
f 4/1/1 1/2/2 5/3/3
f 2/4/4 1/5/2 8/6/5
f 53/7/6 15/8/7 3/9/8
f 5/10/3 9/11/9 4/12/1
f 4/12/1 9/11/9 7/13/10
f 53/7/6 3/14/8 10/15/11
f 10/15/11 15/8/7 53/7/6
f 7/13/10 9/11/9 11/16/12
f 12/17/13 10/18/11 7/19/10
f 13/20/14 6/21/15 14/22/16
f 16/23/17 6/21/15 13/20/14
f 12/24/13 11/16/12 16/23/17
f 14/25/16 3/9/8 15/8/7
f 17/26/18 13/20/14 14/22/16
f 14/22/16 15/27/7 12/28/13
f 12/28/13 23/29/19 14/22/16
f 19/30/20 16/23/17 13/20/14
f 19/30/20 20/31/21 16/23/17
f 14/22/16 23/29/19 18/32/22
f 22/33/23 54/34/24 17/26/18
f 23/29/19 24/35/25 18/32/22
f 24/35/25 47/36/26 18/32/22
f 20/31/21 22/33/23 21/37/27
f 25/38/28 22/33/23 47/36/26
f 24/35/25 25/38/28 47/36/26
f 22/33/23 29/39/29 27/40/30
f 26/41/31 32/42/32 28/43/33
f 24/44/25 27/45/30 33/46/34
f 24/44/25 34/47/35 32/42/32
f 36/48/36 30/49/37 28/43/33
f 29/50/29 30/49/37 36/48/36
f 29/50/29 36/48/36 39/51/38
f 39/51/38 33/52/34 29/50/29
f 32/42/32 34/47/35 31/53/39
f 37/54/40 36/48/36 31/53/39
f 34/47/35 33/46/34 35/55/41
f 39/51/38 36/48/36 41/56/42
f 39/51/38 40/57/43 35/58/41
f 41/56/42 40/57/43 39/51/38
f 42/59/44 36/48/36 37/54/40
f 44/60/45 36/48/36 42/59/44
f 43/61/46 34/47/35 50/62/47
f 37/54/40 38/63/48 45/64/49
f 46/65/50 42/59/44 52/66/51
f 48/67/52 45/68/49 43/69/46
f 51/70/53 48/71/52 50/62/47
f 49/72/54 51/73/53 42/74/44
f 1/2/2 2/75/4 5/3/3
f 8/6/5 1/5/2 4/76/1
f 2/4/4 8/6/5 6/21/15
f 5/10/3 2/4/4 6/21/15
f 7/77/10 8/6/5 4/76/1
f 6/21/15 9/11/9 5/10/3
f 6/21/15 8/6/5 10/78/11
f 7/77/10 10/78/11 8/6/5
f 7/19/10 11/79/12 12/17/13
f 16/23/17 9/11/9 6/21/15
f 6/21/15 10/78/11 14/22/16
f 9/11/9 16/23/17 11/16/12
f 10/80/11 12/81/13 15/82/7
f 10/83/11 3/9/8 14/25/16
f 14/22/16 18/32/22 17/26/18
f 13/20/14 17/26/18 19/30/20
f 19/84/20 17/85/18 20/86/21
f 54/87/24 20/86/21 17/85/18
f 16/23/17 21/37/27 12/24/13
f 18/32/22 47/36/26 22/33/23
f 21/37/27 16/23/17 20/31/21
f 21/37/27 23/88/19 12/24/13
f 20/31/21 54/34/24 22/33/23
f 22/33/23 27/40/30 21/37/27
f 21/37/27 27/40/30 23/88/19
f 26/89/31 25/38/28 24/35/25
f 24/35/25 23/29/19 27/90/30
f 24/44/25 32/42/32 26/41/31
f 29/39/29 22/33/23 25/38/28
f 30/49/37 25/91/28 26/92/31
f 26/92/31 28/43/33 30/49/37
f 30/49/37 29/50/29 25/91/28
f 29/50/29 33/52/34 27/93/30
f 28/43/33 32/42/32 31/53/39
f 33/46/34 34/47/35 24/44/25
f 31/53/39 36/48/36 28/43/33
f 39/51/38 35/58/41 33/52/34
f 31/53/39 38/63/48 37/54/40
f 34/47/35 38/63/48 31/53/39
f 44/60/45 41/56/42 36/48/36
f 50/62/47 34/47/35 35/55/41
f 35/58/41 40/57/43 50/94/47
f 34/47/35 43/61/46 38/63/48
f 42/59/44 37/54/40 49/95/54
f 40/57/43 41/56/42 44/60/45
f 50/94/47 40/57/43 46/65/50
f 46/65/50 40/57/43 44/60/45
f 43/61/46 50/62/47 48/71/52
f 37/54/40 45/64/49 49/95/54
f 45/68/49 38/96/48 43/69/46
f 42/59/44 46/65/50 44/60/45
f 52/66/51 50/97/47 46/65/50
f 50/62/47 52/98/51 51/99/53
f 42/74/44 51/73/53 52/100/51
f 51/73/53 49/72/54 45/68/49
f 48/67/52 51/73/53 45/68/49
f 18/32/22 22/33/23 17/26/18
